<svg width="1644" height="24" viewBox="0 0 1644 24" fill="none" xmlns="http://www.w3.org/2000/svg">
<path d="M0 12.4319H756" stroke="#FDCF41"/>
<path d="M888 12.4319H1644" stroke="#FDCF41"/>
<path d="M843.693 17.6373L843.677 17.6494L843.663 17.6627C841.462 19.6719 838.594 20.7254 835.627 20.6325C835.101 20.5916 834.593 20.5165 834.093 20.4071C837.989 21.0545 841.957 19.6679 844.577 16.6603L844.582 16.6549C845.597 15.4549 846.137 14.0175 846.205 12.4874C846.252 14.4692 845.335 16.3604 843.693 17.6373ZM832.176 19.7792C832.298 19.8399 832.41 19.8919 832.513 19.9372C832.373 19.8844 832.233 19.8288 832.092 19.7704L832.086 19.7677C831.534 19.5469 830.787 19.3986 830.114 19.6677L830.114 19.6676L830.105 19.6716C826.844 21.0549 823.388 22.0422 819.836 22.536C814.879 23.1305 810.084 23.0221 805.504 20.9754L805.495 20.9714L805.486 20.9677C803.571 20.202 801.938 18.9559 800.586 17.3141L800.586 17.314L800.58 17.3065C800.287 16.9652 799.962 16.6293 799.523 16.5416C799.067 16.4505 798.644 16.6526 798.237 16.9064C794.188 19.375 789.646 21.152 785.008 22.0404C779.542 23.034 774.158 23.3147 768.992 21.1701L768.99 21.1693C765.187 19.6093 762.42 17.2034 761.177 13.2808L761.177 13.2808L761.174 13.2738C760.484 11.2032 760.138 9.16433 761.051 7.2469L761.051 7.24692L761.054 7.24026C762.101 4.95766 763.9 3.25513 766.269 2.40238L766.28 2.39847L766.291 2.39406C770.773 0.54291 775.195 0.459229 779.427 3.05129C780.952 4.10216 782.185 5.52932 782.943 7.235L782.947 7.24465C782.908 7.27286 782.867 7.30901 782.83 7.35499C782.819 7.34364 782.809 7.3336 782.8 7.3241V7.31756L782.75 7.21456C781.286 4.18249 778.457 1.96782 775.083 1.53841C771.149 0.716346 767.113 1.64962 763.905 4.128C760.485 6.48906 759.637 11.2924 761.986 14.7123C762.214 15.0529 762.542 15.3812 762.827 15.6657L762.834 15.6733C764.92 18.0654 767.826 19.5099 770.918 20.0251L770.927 20.0267L770.937 20.0279C775.697 20.6356 780.468 20.3333 785.042 18.9113C788.989 17.7973 792.729 16.078 796.162 13.9578C796.822 13.5517 797.319 13.1572 797.56 12.5897C797.8 12.0253 797.742 11.3907 797.59 10.6339L797.589 10.6303C797.067 8.11278 797.616 5.98493 798.801 4.39303C799.214 3.83796 799.708 3.3443 800.266 2.92039C798.292 4.52194 797.16 7.09732 797.5 9.76676C797.507 10.1364 797.625 10.4895 797.716 10.7607C797.717 10.7631 797.717 10.7654 797.718 10.7677C797.79 11.078 797.859 11.3503 797.942 11.5583C798.021 11.7559 798.165 12.0341 798.474 12.1501C798.776 12.2633 799.067 12.1567 799.254 12.07C799.456 11.9762 799.695 11.8276 799.96 11.659C800.543 11.3187 801.126 10.9765 801.708 10.6342C804.729 8.85815 807.751 7.08191 810.914 5.5838L810.914 5.5839L810.924 5.57914L812.124 4.97914L813.323 4.37915L813.37 4.35605L814.761 4.44309L813.285 3.42084C810.588 1.55406 807.159 0.71577 803.92 1.33821C803.909 1.33967 803.898 1.34115 803.887 1.34266C803.92 1.33634 803.954 1.33021 803.987 1.32424L803.992 1.32337C807.058 0.748574 810.128 1.41654 812.728 3.05172C813.734 3.71995 815.111 3.97249 816.299 3.39105C820.725 1.72289 825.443 1.03722 830.158 1.43021L830.158 1.43023L830.163 1.4306C834.223 1.72768 838.02 2.51598 841.413 4.84153C842.081 5.31896 842.753 5.89309 843.445 6.48609C844.101 7.24093 845.169 7.38994 845.979 6.7496C848.346 5.46958 850.71 4.38773 853.169 3.5024L853.174 3.50081C858.494 1.53032 864.31 0.938281 869.93 1.72708L869.939 1.72829L869.948 1.72919C873.647 2.1186 877.058 3.57855 879.988 5.92237L879.995 5.92834L880.003 5.93402C881.33 6.9148 882.307 8.28944 882.864 9.81804C882.53 8.97419 882.028 8.17949 881.36 7.48538L881.36 7.48531L881.353 7.47838L881.342 7.46666C881.149 7.27379 880.824 6.94923 880.486 6.72177C878.231 5.08387 875.571 4.05701 872.807 3.74087C871.541 3.32892 870.096 3.23194 868.7 3.23194C863.225 3.23194 857.752 4.54877 852.886 6.97966C851.578 7.56193 850.313 8.25277 849.083 8.92408C848.607 9.18393 848.137 9.44085 847.671 9.68741C846.863 10.0939 846.307 10.9092 846.204 11.8034C846.203 11.7698 846.201 11.7362 846.199 11.7026L846.152 10.9001L845.453 11.2972C843.904 12.1774 842.388 13.0768 840.872 13.9765C838.049 15.6518 835.224 17.3286 832.173 18.8866L831.291 19.3366L832.176 19.7792ZM882.288 16.1236C883.142 14.786 883.484 13.2225 883.325 11.695C883.374 12.0672 883.399 12.4425 883.4 12.818C883.332 13.9945 882.941 15.1297 882.288 16.1236ZM874.48 20.6258C876.967 20.3109 879.343 19.176 881.208 17.4281C879.508 19.25 877.173 20.359 874.632 20.7365C872.341 21.0216 870.049 20.5435 868.141 19.4938L868.132 19.4891L868.124 19.4847C868.099 19.4725 868.082 19.4621 868.071 19.4543C868.072 19.4488 868.074 19.4422 868.076 19.4344C868.084 19.3991 868.102 19.3507 868.132 19.2866C868.159 19.2511 868.179 19.2358 868.189 19.2298C868.19 19.2302 868.191 19.2306 868.192 19.2311C868.198 19.2336 868.207 19.2379 868.218 19.2453C870.019 20.5131 872.346 21.047 874.48 20.6258ZM800.945 15.6016L800.411 15.9176L800.834 16.3722C802.209 17.8535 803.993 18.7899 805.842 19.4063L805.858 19.4117L805.875 19.4161C809.023 20.2285 812.286 20.5371 815.459 20.1285C819.202 19.7233 822.847 18.8122 826.29 17.3943L826.297 17.3915L826.318 17.3826C826.475 17.3154 826.625 17.2507 826.738 17.1885C826.799 17.1551 826.874 17.1091 826.942 17.0462C827.012 16.9812 827.098 16.8775 827.135 16.7282C827.211 16.4246 827.031 16.1925 826.97 16.1153C826.892 16.0171 826.78 15.9054 826.671 15.7954L826.653 15.7784C826.26 15.385 825.89 14.9908 825.515 14.59L825.512 14.5872C825.14 14.1903 824.762 13.7869 824.358 13.3827C824.02 13.0277 823.683 12.6716 823.348 12.316C821.716 10.5874 820.096 8.87136 818.339 7.36397C817.669 6.70762 816.639 6.60244 815.774 7.08544C812.079 8.75381 808.528 10.9494 805.016 13.1209C803.655 13.9621 802.3 14.7997 800.945 15.6016ZM818.257 6.09485L817.645 6.43501L818.165 6.90358C821.146 9.58641 823.832 12.4702 826.534 15.3726L826.54 15.3792L826.546 15.3855C826.794 15.6327 827.015 15.8487 827.224 16.0102C827.437 16.1752 827.669 16.3098 827.946 16.3611C828.226 16.4129 828.495 16.3693 828.762 16.279C829.02 16.1916 829.307 16.0499 829.632 15.8747C833.087 14.1087 836.487 12.106 839.812 10.1467C840.831 9.54659 841.843 8.95054 842.847 8.36661C842.848 8.3658 842.85 8.365 842.851 8.36419L842.867 8.35525C843.071 8.24222 843.262 8.1362 843.399 8.03727C843.513 7.95493 843.775 7.75334 843.775 7.40694C843.775 7.2397 843.711 7.10568 843.651 7.01357C843.592 6.92323 843.518 6.84539 843.449 6.78093C843.319 6.65802 843.135 6.51447 842.927 6.35266L842.907 6.33726L842.895 6.3279L842.882 6.31928C840.925 4.98032 838.653 4.04859 836.269 3.73677C832.218 3.12967 828.165 3.23022 824.212 4.03946C822.154 4.34995 820.102 5.06973 818.257 6.09485Z" fill="#FDCF41" stroke="#FDCF41"/>
</svg>
